<mxfile host="65bd71144e">
    <diagram id="ajxpqL0-z2_5kK1_hGB2" name="Page-1">
        <mxGraphModel dx="594" dy="214" grid="1" gridSize="10" guides="1" tooltips="1" connect="1" arrows="1" fold="1" page="1" pageScale="1" pageWidth="827" pageHeight="1169" math="0" shadow="0">
            <root>
                <mxCell id="0"/>
                <mxCell id="1" parent="0"/>
                <mxCell id="7" value="" style="edgeStyle=none;html=1;" edge="1" parent="1" source="2" target="6">
                    <mxGeometry relative="1" as="geometry"/>
                </mxCell>
                <mxCell id="2" value="Start" style="ellipse;whiteSpace=wrap;html=1;" vertex="1" parent="1">
                    <mxGeometry x="310" y="100" width="120" height="40" as="geometry"/>
                </mxCell>
                <mxCell id="9" value="" style="edgeStyle=none;html=1;" edge="1" parent="1" source="6" target="8">
                    <mxGeometry relative="1" as="geometry"/>
                </mxCell>
                <mxCell id="6" value="N = Random,&lt;br&gt;npp,&lt;br&gt;T = 0&lt;br&gt;T2 = 0" style="shape=parallelogram;perimeter=parallelogramPerimeter;whiteSpace=wrap;html=1;fixedSize=1;" vertex="1" parent="1">
                    <mxGeometry x="310" y="160" width="120" height="80" as="geometry"/>
                </mxCell>
                <mxCell id="11" value="" style="edgeStyle=none;html=1;fontSize=12;" edge="1" parent="1" source="8" target="10">
                    <mxGeometry relative="1" as="geometry"/>
                </mxCell>
                <mxCell id="8" value="&lt;div style=&quot;color: rgb(212 , 212 , 212) ; background-color: rgb(30 , 30 , 30) ; font-family: &amp;#34;consolas&amp;#34; , &amp;#34;courier new&amp;#34; , monospace ; line-height: 30px&quot;&gt;&lt;span style=&quot;color: rgb(220 , 220 , 170)&quot;&gt;&lt;font style=&quot;font-size: 12px&quot;&gt;newN = Perevorot (N)&lt;/font&gt;&lt;/span&gt;&lt;/div&gt;" style="shape=process;whiteSpace=wrap;html=1;backgroundOutline=1;" vertex="1" parent="1">
                    <mxGeometry x="280" y="280" width="180" height="60" as="geometry"/>
                </mxCell>
                <mxCell id="14" value="" style="edgeStyle=none;html=1;fontSize=12;" edge="1" parent="1" source="10" target="13">
                    <mxGeometry relative="1" as="geometry"/>
                </mxCell>
                <mxCell id="10" value="&lt;div style=&quot;background-color: rgb(30 , 30 , 30) ; font-family: &amp;#34;consolas&amp;#34; , &amp;#34;courier new&amp;#34; , monospace ; line-height: 30px ; color: rgb(212 , 212 , 212)&quot;&gt;&lt;span style=&quot;color: #dcdcaa&quot;&gt;n = LengthNumber&lt;/span&gt;(&lt;span style=&quot;color: #9cdcfe&quot;&gt;N&lt;/span&gt;)&lt;/div&gt;" style="shape=process;whiteSpace=wrap;html=1;backgroundOutline=1;" vertex="1" parent="1">
                    <mxGeometry x="270" y="390" width="200" height="60" as="geometry"/>
                </mxCell>
                <mxCell id="16" value="" style="edgeStyle=none;html=1;fontSize=12;" edge="1" parent="1" source="13" target="15">
                    <mxGeometry relative="1" as="geometry">
                        <Array as="points">
                            <mxPoint x="580" y="560"/>
                        </Array>
                    </mxGeometry>
                </mxCell>
                <mxCell id="29" value="+" style="edgeLabel;html=1;align=center;verticalAlign=middle;resizable=0;points=[];fontSize=20;" vertex="1" connectable="0" parent="16">
                    <mxGeometry x="-0.6536" y="-1" relative="1" as="geometry">
                        <mxPoint x="-6" y="-21" as="offset"/>
                    </mxGeometry>
                </mxCell>
                <mxCell id="18" value="" style="edgeStyle=none;html=1;fontSize=12;" edge="1" parent="1" source="13" target="17">
                    <mxGeometry relative="1" as="geometry">
                        <Array as="points">
                            <mxPoint x="170" y="560"/>
                        </Array>
                    </mxGeometry>
                </mxCell>
                <mxCell id="30" value="-" style="edgeLabel;html=1;align=center;verticalAlign=middle;resizable=0;points=[];fontSize=20;" vertex="1" connectable="0" parent="18">
                    <mxGeometry x="-0.9003" y="-2" relative="1" as="geometry">
                        <mxPoint x="-20" y="-18" as="offset"/>
                    </mxGeometry>
                </mxCell>
                <mxCell id="13" value="n &amp;lt; npp" style="rhombus;whiteSpace=wrap;html=1;" vertex="1" parent="1">
                    <mxGeometry x="300" y="520" width="140" height="80" as="geometry"/>
                </mxCell>
                <mxCell id="24" value="" style="edgeStyle=none;html=1;fontSize=8;" edge="1" parent="1" source="15">
                    <mxGeometry relative="1" as="geometry">
                        <mxPoint x="370" y="830" as="targetPoint"/>
                        <Array as="points">
                            <mxPoint x="580" y="830"/>
                        </Array>
                    </mxGeometry>
                </mxCell>
                <mxCell id="15" value="npp цифры нет" style="shape=document;whiteSpace=wrap;html=1;boundedLbl=1;" vertex="1" parent="1">
                    <mxGeometry x="520" y="630" width="120" height="80" as="geometry"/>
                </mxCell>
                <mxCell id="20" value="" style="edgeStyle=none;html=1;fontSize=8;" edge="1" parent="1" source="17" target="19">
                    <mxGeometry relative="1" as="geometry"/>
                </mxCell>
                <mxCell id="17" value="&lt;div&gt;T = newN % MathPowInt(10, npp) / MathPowInt(10, npp-1)&lt;/div&gt;&lt;div&gt;&amp;nbsp; &amp;nbsp; T2 = newN / MathPowInt(10, npp-1) % 10&lt;/div&gt;" style="whiteSpace=wrap;html=1;" vertex="1" parent="1">
                    <mxGeometry x="10" y="629" width="320" height="60" as="geometry"/>
                </mxCell>
                <mxCell id="22" value="" style="edgeStyle=none;html=1;fontSize=8;" edge="1" parent="1" source="19">
                    <mxGeometry relative="1" as="geometry">
                        <mxPoint x="370" y="830" as="targetPoint"/>
                        <Array as="points">
                            <mxPoint x="170" y="830"/>
                        </Array>
                    </mxGeometry>
                </mxCell>
                <mxCell id="19" value="T&lt;br&gt;T2" style="shape=document;whiteSpace=wrap;html=1;boundedLbl=1;" vertex="1" parent="1">
                    <mxGeometry x="110" y="740" width="120" height="60" as="geometry"/>
                </mxCell>
                <mxCell id="21" value="End" style="ellipse;whiteSpace=wrap;html=1;" vertex="1" parent="1">
                    <mxGeometry x="310" y="870" width="120" height="60" as="geometry"/>
                </mxCell>
                <mxCell id="27" value="" style="endArrow=classic;html=1;fontSize=8;entryX=0.5;entryY=0;entryDx=0;entryDy=0;" edge="1" parent="1" target="21">
                    <mxGeometry width="50" height="50" relative="1" as="geometry">
                        <mxPoint x="370" y="830" as="sourcePoint"/>
                        <mxPoint x="370" y="860" as="targetPoint"/>
                    </mxGeometry>
                </mxCell>
                <mxCell id="28" value="&lt;div&gt;Задача 7. Напишите программу, которая выводит третью цифру заданного числа или сообщает, что третьей цифры нет.&lt;/div&gt;&lt;div&gt;645 -&amp;gt; 5&lt;/div&gt;&lt;div&gt;78 -&amp;gt; третьей цифры нет&lt;/div&gt;&lt;div&gt;32679 -&amp;gt; 6&lt;/div&gt;" style="text;html=1;strokeColor=none;fillColor=none;align=center;verticalAlign=middle;whiteSpace=wrap;rounded=0;fontSize=8;" vertex="1" parent="1">
                    <mxGeometry x="90" y="30" width="470" height="40" as="geometry"/>
                </mxCell>
            </root>
        </mxGraphModel>
    </diagram>
</mxfile>